<svg xmlns="http://www.w3.org/2000/svg" viewBox="0 0 1280 560">
  <defs>
    <clipPath id="fc0"><rect x="34" y="34" width="388" height="234" rx="20"/></clipPath>
    <clipPath id="fc1"><rect x="446" y="34" width="388" height="234" rx="20"/></clipPath>
    <clipPath id="fc2"><rect x="858" y="34" width="388" height="234" rx="20"/></clipPath>
    <clipPath id="fc3"><rect x="34" y="292" width="388" height="234" rx="20"/></clipPath>
    <clipPath id="fc4"><rect x="446" y="292" width="388" height="234" rx="20"/></clipPath>
    <clipPath id="fc5"><rect x="858" y="292" width="388" height="234" rx="20"/></clipPath>
    <mask id="ops-cutout">
      <rect width="24" height="24" fill="white"/>
      <circle cx="12" cy="12" r="3" fill="black"/>
    </mask>
  </defs>

  <!-- CARD 0 — Data -->
  <g>
    <rect x="34" y="34" width="388" height="234" rx="20" fill="#1c1c1e" stroke="rgba(255,255,255,0.08)" stroke-width="1"/>
    <rect x="34" y="34" width="388" height="3" fill="#ff9500" clip-path="url(#fc0)"/>
    <g transform="translate(204, 58) scale(2)">
      <path d="M3 7a2 2 0 0 1 2-2h4l2 2h8a2 2 0 0 1 2 2v8a2 2 0 0 1-2 2H5a2 2 0 0 1-2-2V7z" fill="#ff9500"/>
    </g>
    <text x="228" y="130" font-family="-apple-system, BlinkMacSystemFont, 'Segoe UI', system-ui, sans-serif" font-size="26" font-weight="700" fill="#ffffff" text-anchor="middle">Data</text>
    <text x="228" y="168" font-family="-apple-system, BlinkMacSystemFont, 'Segoe UI', system-ui, sans-serif" font-size="16" fill="#ebebf5" fill-opacity="0.78" text-anchor="middle">
      <tspan x="228" dy="0">Upload &amp; manage corpora, curate</tspan>
      <tspan x="228" dy="24">datasets from your own text</tspan>
    </text>
  </g>

  <!-- CARD 1 — Train -->
  <g>
    <rect x="446" y="34" width="388" height="234" rx="20" fill="#1c1c1e" stroke="rgba(255,255,255,0.08)" stroke-width="1"/>
    <rect x="446" y="34" width="388" height="3" fill="#ff9500" clip-path="url(#fc1)"/>
    <g transform="translate(616, 58) scale(2)">
      <g stroke="#ff9500" stroke-width="1.3" stroke-linecap="round" fill="none">
        <line x1="5" y1="6" x2="21" y2="14"/>
        <line x1="5" y1="6" x2="16" y2="20"/>
        <line x1="5" y1="6" x2="8" y2="20"/>
        <line x1="12" y1="3" x2="21" y2="14"/>
        <line x1="12" y1="3" x2="16" y2="20"/>
        <line x1="12" y1="3" x2="8" y2="20"/>
        <line x1="19" y1="6" x2="21" y2="14"/>
        <line x1="19" y1="6" x2="16" y2="20"/>
        <line x1="19" y1="6" x2="8" y2="20"/>
        <line x1="21" y1="14" x2="3" y2="14"/>
        <line x1="16" y1="20" x2="3" y2="14"/>
        <line x1="8" y1="20" x2="3" y2="14"/>
      </g>
      <g fill="#ff9500">
        <circle cx="5" cy="6" r="1.6"/>
        <circle cx="12" cy="3" r="1.6"/>
        <circle cx="19" cy="6" r="1.6"/>
        <circle cx="21" cy="14" r="1.6"/>
        <circle cx="16" cy="20" r="1.6"/>
        <circle cx="8" cy="20" r="1.6"/>
        <circle cx="3" cy="14" r="1.6"/>
      </g>
    </g>
    <text x="640" y="130" font-family="-apple-system, BlinkMacSystemFont, 'Segoe UI', system-ui, sans-serif" font-size="26" font-weight="700" fill="#ffffff" text-anchor="middle">Train</text>
    <text x="640" y="168" font-family="-apple-system, BlinkMacSystemFont, 'Segoe UI', system-ui, sans-serif" font-size="16" fill="#ebebf5" fill-opacity="0.78" text-anchor="middle">
      <tspan x="640" dy="0">Configure hyperparameters, watch</tspan>
      <tspan x="640" dy="24">live loss curves over SSE</tspan>
    </text>
  </g>

  <!-- CARD 2 — Experiments -->
  <g>
    <rect x="858" y="34" width="388" height="234" rx="20" fill="#1c1c1e" stroke="rgba(255,255,255,0.08)" stroke-width="1"/>
    <rect x="858" y="34" width="388" height="3" fill="#ff9500" clip-path="url(#fc2)"/>
    <g transform="translate(1028, 58) scale(2)">
      <path d="M10 4v5l-4 9a2 2 0 0 0 2 2h8a2 2 0 0 0 2-2l-4-9V4" fill="#ff9500"/>
      <path d="M9 4h6" stroke="#ff9500" stroke-width="2" fill="none"/>
      <circle cx="11" cy="2.5" r="1.5" fill="#ff9500"/>
      <circle cx="13.5" cy="1" r="1.2" fill="#ff9500"/>
      <circle cx="10" cy="0" r="1" fill="#ff9500"/>
    </g>
    <text x="1052" y="130" font-family="-apple-system, BlinkMacSystemFont, 'Segoe UI', system-ui, sans-serif" font-size="26" font-weight="700" fill="#ffffff" text-anchor="middle">Experiments</text>
    <text x="1052" y="168" font-family="-apple-system, BlinkMacSystemFont, 'Segoe UI', system-ui, sans-serif" font-size="16" fill="#ebebf5" fill-opacity="0.78" text-anchor="middle">
      <tspan x="1052" dy="0">Track runs, compare loss curves,</tspan>
      <tspan x="1052" dy="24">register your best models</tspan>
    </text>
  </g>

  <!-- CARD 3 — Models -->
  <g>
    <rect x="34" y="292" width="388" height="234" rx="20" fill="#1c1c1e" stroke="rgba(255,255,255,0.08)" stroke-width="1"/>
    <rect x="34" y="292" width="388" height="3" fill="#ff9500" clip-path="url(#fc3)"/>
    <g transform="translate(204, 316) scale(2)">
      <path d="M12 5 C11 4 9 4 7.5 4.5 C6 5 5 5.5 4.5 7 C3.5 8.5 3 11 3.5 13 C4 15 5.5 17 8 18 C9.5 18.5 11 18.5 12 18 Z" fill="none" stroke="#ff9500" stroke-width="1.5" stroke-linecap="round" stroke-linejoin="round"/>
      <path d="M12 5 C13 4 15 4 16.5 4.5 C18 5 19 5.5 19.5 7 C20.5 8.5 21 11 20.5 13 C20 15 18.5 17 16 18 C14.5 18.5 13 18.5 12 18 Z" fill="none" stroke="#ff9500" stroke-width="1.5" stroke-linecap="round" stroke-linejoin="round"/>
    </g>
    <text x="228" y="388" font-family="-apple-system, BlinkMacSystemFont, 'Segoe UI', system-ui, sans-serif" font-size="26" font-weight="700" fill="#ffffff" text-anchor="middle">Models</text>
    <text x="228" y="426" font-family="-apple-system, BlinkMacSystemFont, 'Segoe UI', system-ui, sans-serif" font-size="16" fill="#ebebf5" fill-opacity="0.78" text-anchor="middle">
      <tspan x="228" dy="0">Register, version &amp; export models</tspan>
      <tspan x="228" dy="24">to safetensors</tspan>
    </text>
  </g>

  <!-- CARD 4 — Learn -->
  <g>
    <rect x="446" y="292" width="388" height="234" rx="20" fill="#1c1c1e" stroke="rgba(255,255,255,0.08)" stroke-width="1"/>
    <rect x="446" y="292" width="388" height="3" fill="#ff9500" clip-path="url(#fc4)"/>
    <g transform="translate(616, 316) scale(2)">
      <path d="M10.5 10v10.5l1.5-1 1.5 1V10z" fill="#ff9500"/>
      <polygon points="3.5,6 11,4.5 11,19 3.5,19" fill="#ff9500"/>
      <polygon points="20.5,6 13,4.5 13,19 20.5,19" fill="#ff9500"/>
      <rect x="11" y="4" width="2" height="15.5" rx="0.3" fill="#ff9500"/>
    </g>
    <text x="640" y="388" font-family="-apple-system, BlinkMacSystemFont, 'Segoe UI', system-ui, sans-serif" font-size="26" font-weight="700" fill="#ffffff" text-anchor="middle">Learn</text>
    <text x="640" y="426" font-family="-apple-system, BlinkMacSystemFont, 'Segoe UI', system-ui, sans-serif" font-size="16" fill="#ebebf5" fill-opacity="0.78" text-anchor="middle">
      <tspan x="640" dy="0">Interactive lessons from bigrams</tspan>
      <tspan x="640" dy="24">to a full transformer</tspan>
    </text>
  </g>

  <!-- CARD 5 — Ops -->
  <g>
    <rect x="858" y="292" width="388" height="234" rx="20" fill="#1c1c1e" stroke="rgba(255,255,255,0.08)" stroke-width="1"/>
    <rect x="858" y="292" width="388" height="3" fill="#ff9500" clip-path="url(#fc5)"/>
    <g transform="translate(1028, 316) scale(2)">
      <g mask="url(#ops-cutout)">
        <circle cx="12" cy="12" r="7" fill="#ff9500"/>
        <rect x="10" y="2" width="4" height="4" rx="0.8" fill="#ff9500"/>
        <rect x="10" y="2" width="4" height="4" rx="0.8" fill="#ff9500" transform="rotate(45 12 12)"/>
        <rect x="10" y="2" width="4" height="4" rx="0.8" fill="#ff9500" transform="rotate(90 12 12)"/>
        <rect x="10" y="2" width="4" height="4" rx="0.8" fill="#ff9500" transform="rotate(135 12 12)"/>
        <rect x="10" y="2" width="4" height="4" rx="0.8" fill="#ff9500" transform="rotate(180 12 12)"/>
        <rect x="10" y="2" width="4" height="4" rx="0.8" fill="#ff9500" transform="rotate(225 12 12)"/>
        <rect x="10" y="2" width="4" height="4" rx="0.8" fill="#ff9500" transform="rotate(270 12 12)"/>
        <rect x="10" y="2" width="4" height="4" rx="0.8" fill="#ff9500" transform="rotate(315 12 12)"/>
      </g>
    </g>
    <text x="1052" y="388" font-family="-apple-system, BlinkMacSystemFont, 'Segoe UI', system-ui, sans-serif" font-size="26" font-weight="700" fill="#ffffff" text-anchor="middle">Ops</text>
    <text x="1052" y="426" font-family="-apple-system, BlinkMacSystemFont, 'Segoe UI', system-ui, sans-serif" font-size="16" fill="#ebebf5" fill-opacity="0.78" text-anchor="middle">
      <tspan x="1052" dy="0">Manage services, monitor</tspan>
      <tspan x="1052" dy="24">CPU/GPU/memory, tail logs</tspan>
    </text>
  </g>
</svg>