<svg xmlns="http://www.w3.org/2000/svg" viewBox="0 0 1280 520" width="100%" height="100%">
  <defs>
    <g id="icon-home">
      <path d="M3 11 L12 3 L21 11 V21 a1 1 0 0 1-1 1 h-5 v-6 h-6 v6 H4 a1 1 0 0 1-1-1 Z" fill="#ff9500"/>
    </g>
    <g id="icon-folder">
      <path d="M3 7a2 2 0 0 1 2-2h4l2 2h8a2 2 0 0 1 2 2v8a2 2 0 0 1-2 2H5a2 2 0 0 1-2-2V7z" fill="#ff9500"/>
    </g>
    <g id="icon-bolt">
      <path d="M13 2 L4 14 h7 l-2 8 9-12 h-7 z" fill="#ff9500"/>
    </g>
    <g id="icon-chart">
      <g fill="none" stroke="#ff9500" stroke-width="2" stroke-linecap="round" stroke-linejoin="round">
        <path d="M4 4 v16 h16"/>
        <path d="M7 15 l4-5 3 3 5-7"/>
      </g>
    </g>
    <g id="icon-cube">
      <g fill="none" stroke="#ff9500" stroke-width="2" stroke-linejoin="round">
        <path d="M12 2 L21 7 V17 L12 22 L3 17 V7 Z"/>
        <path d="M3 7 L12 12 L21 7"/>
        <path d="M12 12 V22"/>
      </g>
    </g>
    <g id="icon-terminal">
      <g fill="none" stroke="#ff9500" stroke-width="2" stroke-linecap="round" stroke-linejoin="round">
        <rect x="3" y="4" width="18" height="16" rx="2"/>
        <path d="M7 9 l3 3 -3 3"/>
        <path d="M13 15 h4"/>
      </g>
    </g>
    <g id="icon-book">
      <path d="M10.5 10v10.5l1.5-1 1.5 1V10z" fill="#ff9500"/>
      <polygon points="3.5,6 11,4.5 11,19 3.5,19" fill="#ff9500"/>
      <polygon points="20.5,6 13,4.5 13,19 20.5,19" fill="#ff9500"/>
      <rect x="11" y="4" width="2" height="15.5" rx="0.3" fill="#ff9500"/>
    </g>
    <g id="icon-gear">
      <circle cx="12" cy="12" r="3.2" fill="none" stroke="#ff9500" stroke-width="2"/>
      <g fill="#ff9500">
        <rect x="10.6" y="1.5" width="2.8" height="4" rx="0.6"/>
        <rect x="10.6" y="18.5" width="2.8" height="4" rx="0.6"/>
        <rect x="1.5" y="10.6" width="4" height="2.8" rx="0.6"/>
        <rect x="18.5" y="10.6" width="4" height="2.8" rx="0.6"/>
      </g>
    </g>
  </defs>

  <!-- Background panel -->
  <rect x="0" y="0" width="1280" height="520" rx="24" fill="#0c0c0d"/>

  <!-- Row 1 -->
  <!-- Card: Dashboard -->
  <g transform="translate(36, 55)">
    <rect x="0" y="0" width="281" height="190" rx="16" fill="#1c1c1e" stroke="#ffffff" stroke-opacity="0.08" stroke-width="1"/>
    <rect x="16" y="0" width="249" height="3" rx="1.5" fill="#ff9500"/>
    <rect x="30" y="16" width="221" height="92" rx="10" fill="#2c2c2e"/>
    <use href="#icon-home" x="128.5" y="50"/>
    <text x="140.5" y="132" text-anchor="middle" font-family="-apple-system,BlinkMacSystemFont,'Segoe UI',system-ui,sans-serif" font-size="20" font-weight="700" fill="#ffffff">Dashboard</text>
    <text x="140.5" y="168" text-anchor="middle" font-family="ui-monospace,'SF Mono',Menlo,Consolas,monospace" font-size="14" fill="#8e8e93">/</text>
  </g>

  <!-- Card: Datasets -->
  <g transform="translate(345, 55)">
    <rect x="0" y="0" width="281" height="190" rx="16" fill="#1c1c1e" stroke="#ffffff" stroke-opacity="0.08" stroke-width="1"/>
    <rect x="16" y="0" width="249" height="3" rx="1.5" fill="#ff9500"/>
    <rect x="30" y="16" width="221" height="92" rx="10" fill="#2c2c2e"/>
    <use href="#icon-folder" x="128.5" y="50"/>
    <text x="140.5" y="132" text-anchor="middle" font-family="-apple-system,BlinkMacSystemFont,'Segoe UI',system-ui,sans-serif" font-size="20" font-weight="700" fill="#ffffff">Datasets</text>
    <text x="140.5" y="168" text-anchor="middle" font-family="ui-monospace,'SF Mono',Menlo,Consolas,monospace" font-size="14" fill="#8e8e93">/v1/datasets-page</text>
  </g>

  <!-- Card: Training -->
  <g transform="translate(654, 55)">
    <rect x="0" y="0" width="281" height="190" rx="16" fill="#1c1c1e" stroke="#ffffff" stroke-opacity="0.08" stroke-width="1"/>
    <rect x="16" y="0" width="249" height="3" rx="1.5" fill="#ff9500"/>
    <rect x="30" y="16" width="221" height="92" rx="10" fill="#2c2c2e"/>
    <use href="#icon-bolt" x="128.5" y="50"/>
    <text x="140.5" y="132" text-anchor="middle" font-family="-apple-system,BlinkMacSystemFont,'Segoe UI',system-ui,sans-serif" font-size="20" font-weight="700" fill="#ffffff">Training</text>
    <text x="140.5" y="168" text-anchor="middle" font-family="ui-monospace,'SF Mono',Menlo,Consolas,monospace" font-size="14" fill="#8e8e93">/v1/training-page</text>
  </g>

  <!-- Card: Experiments -->
  <g transform="translate(963, 55)">
    <rect x="0" y="0" width="281" height="190" rx="16" fill="#1c1c1e" stroke="#ffffff" stroke-opacity="0.08" stroke-width="1"/>
    <rect x="16" y="0" width="249" height="3" rx="1.5" fill="#ff9500"/>
    <rect x="30" y="16" width="221" height="92" rx="10" fill="#2c2c2e"/>
    <use href="#icon-chart" x="128.5" y="50"/>
    <text x="140.5" y="132" text-anchor="middle" font-family="-apple-system,BlinkMacSystemFont,'Segoe UI',system-ui,sans-serif" font-size="20" font-weight="700" fill="#ffffff">Experiments</text>
    <text x="140.5" y="168" text-anchor="middle" font-family="ui-monospace,'SF Mono',Menlo,Consolas,monospace" font-size="14" fill="#8e8e93">/v1/experiments-page</text>
  </g>

  <!-- Row 2 -->
  <!-- Card: Models -->
  <g transform="translate(36, 275)">
    <rect x="0" y="0" width="281" height="190" rx="16" fill="#1c1c1e" stroke="#ffffff" stroke-opacity="0.08" stroke-width="1"/>
    <rect x="16" y="0" width="249" height="3" rx="1.5" fill="#ff9500"/>
    <rect x="30" y="16" width="221" height="92" rx="10" fill="#2c2c2e"/>
    <use href="#icon-cube" x="128.5" y="50"/>
    <text x="140.5" y="132" text-anchor="middle" font-family="-apple-system,BlinkMacSystemFont,'Segoe UI',system-ui,sans-serif" font-size="20" font-weight="700" fill="#ffffff">Models</text>
    <text x="140.5" y="168" text-anchor="middle" font-family="ui-monospace,'SF Mono',Menlo,Consolas,monospace" font-size="14" fill="#8e8e93">/v1/models-page</text>
  </g>

  <!-- Card: Playground -->
  <g transform="translate(345, 275)">
    <rect x="0" y="0" width="281" height="190" rx="16" fill="#1c1c1e" stroke="#ffffff" stroke-opacity="0.08" stroke-width="1"/>
    <rect x="16" y="0" width="249" height="3" rx="1.5" fill="#ff9500"/>
    <rect x="30" y="16" width="221" height="92" rx="10" fill="#2c2c2e"/>
    <use href="#icon-terminal" x="128.5" y="50"/>
    <text x="140.5" y="132" text-anchor="middle" font-family="-apple-system,BlinkMacSystemFont,'Segoe UI',system-ui,sans-serif" font-size="20" font-weight="700" fill="#ffffff">Playground</text>
    <text x="140.5" y="168" text-anchor="middle" font-family="ui-monospace,'SF Mono',Menlo,Consolas,monospace" font-size="14" fill="#8e8e93">/v1/inference-page</text>
  </g>

  <!-- Card: Learn -->
  <g transform="translate(654, 275)">
    <rect x="0" y="0" width="281" height="190" rx="16" fill="#1c1c1e" stroke="#ffffff" stroke-opacity="0.08" stroke-width="1"/>
    <rect x="16" y="0" width="249" height="3" rx="1.5" fill="#ff9500"/>
    <rect x="30" y="16" width="221" height="92" rx="10" fill="#2c2c2e"/>
    <use href="#icon-book" x="128.5" y="50"/>
    <text x="140.5" y="132" text-anchor="middle" font-family="-apple-system,BlinkMacSystemFont,'Segoe UI',system-ui,sans-serif" font-size="20" font-weight="700" fill="#ffffff">Learn</text>
    <text x="140.5" y="168" text-anchor="middle" font-family="ui-monospace,'SF Mono',Menlo,Consolas,monospace" font-size="14" fill="#8e8e93">/v1/learn</text>
  </g>

  <!-- Card: Operations -->
  <g transform="translate(963, 275)">
    <rect x="0" y="0" width="281" height="190" rx="16" fill="#1c1c1e" stroke="#ffffff" stroke-opacity="0.08" stroke-width="1"/>
    <rect x="16" y="0" width="249" height="3" rx="1.5" fill="#ff9500"/>
    <rect x="30" y="16" width="221" height="92" rx="10" fill="#2c2c2e"/>
    <use href="#icon-gear" x="128.5" y="50"/>
    <text x="140.5" y="132" text-anchor="middle" font-family="-apple-system,BlinkMacSystemFont,'Segoe UI',system-ui,sans-serif" font-size="20" font-weight="700" fill="#ffffff">Operations</text>
    <text x="140.5" y="168" text-anchor="middle" font-family="ui-monospace,'SF Mono',Menlo,Consolas,monospace" font-size="14" fill="#8e8e93">/v1/operations-page</text>
  </g>
</svg>