<svg xmlns="http://www.w3.org/2000/svg" viewBox="0 0 1280 820" width="100%" height="100%">
  <defs>
    <!-- iOS blue accent gradient (loss curve area fill) -->
    <linearGradient id="area-grad" x1="0" y1="0" x2="0" y2="1">
      <stop offset="0%" stop-color="#007aff" stop-opacity="0.25"/>
      <stop offset="100%" stop-color="#007aff" stop-opacity="0.0"/>
    </linearGradient>

    <!-- Forge gradient: warm orange (step 3 bubble only) -->
    <linearGradient id="forge-grad" x1="0%" y1="100%" x2="100%" y2="0%">
      <stop offset="0%" stop-color="#ff9500"/>
      <stop offset="100%" stop-color="#ff9500" stop-opacity="0.85"/>
    </linearGradient>

    <!-- Chart glow behind the curve -->
    <radialGradient id="chart-glow" cx="50%" cy="40%" r="60%">
      <stop offset="0%" stop-color="#007aff" stop-opacity="0.06"/>
      <stop offset="100%" stop-color="#007aff" stop-opacity="0"/>
    </radialGradient>

    <!-- Window background -->
    <radialGradient id="win-glow" cx="50%" cy="20%" r="80%" fx="50%" fy="10%">
      <stop offset="0%" stop-color="#0c0c0d"/>
      <stop offset="100%" stop-color="#000000"/>
    </radialGradient>

    <!-- Subtle dot-grid texture -->
    <pattern id="dot-grid" width="24" height="24" patternUnits="userSpaceOnUse">
      <circle cx="12" cy="12" r="0.6" fill="#ffffff" fill-opacity="0.020"/>
    </pattern>
  </defs>

  <!-- ============================================================== -->
  <!-- WINDOW CHROME                                                   -->
  <!-- ============================================================== -->

  <!-- Window background with shadow border -->
  <rect x="0" y="0" width="1280" height="820" rx="16" fill="url(#win-glow)"/>
  <rect x="0" y="0" width="1280" height="820" rx="16" fill="url(#dot-grid)"/>
  <rect x="0" y="0" width="1280" height="820" rx="16" fill="none" stroke="#ffffff" stroke-opacity="0.10" stroke-width="1"/>

  <!-- ================================================================ -->
  <!-- TITLE BAR (44px)                                                  -->
  <!-- ================================================================ -->

  <rect x="0" y="0" width="1280" height="44" fill="#1c1c1e" rx="0"/>
  <rect x="0" y="0" width="1280" height="44" rx="16" fill="none" stroke="none"/>
  <line x1="0" y1="44" x2="1280" y2="44" stroke="#ffffff" stroke-opacity="0.06" stroke-width="0.5"/>

  <!-- Traffic-light dots -->
  <circle cx="22" cy="22" r="6" fill="#ff5f57"/>
  <circle cx="42" cy="22" r="6" fill="#febc2e"/>
  <circle cx="62" cy="22" r="6" fill="#28c840"/>

  <g opacity="0.4" stroke="#1c1c1e" stroke-width="1.2" stroke-linecap="round">
    <line x1="19.5" y1="19.5" x2="24.5" y2="24.5"/>
    <line x1="24.5" y1="19.5" x2="19.5" y2="24.5"/>
    <line x1="38.5" y1="22.5" x2="45.5" y2="22.5"/>
    <line x1="59.5" y1="22.5" x2="64.5" y2="22.5"/>
    <line x1="62" y1="20" x2="62" y2="25"/>
  </g>

  <!-- URL pill — centered -->
  <rect x="558" y="10" width="164" height="24" rx="12" fill="#2c2c2e"/>
  <text x="640" y="27" font-family="ui-monospace, 'SF Mono', Menlo, Consolas, monospace" font-size="11" fill="#8e8e93" text-anchor="middle">localhost:8080</text>

  <!-- ================================================================ -->
  <!-- GLASS NAV BAR (52px) — 9 tabs + theme toggle                      -->
  <!-- ================================================================ -->

  <rect x="0" y="44" width="1280" height="52" fill="#1c1c1e" fill-opacity="0.92"/>
  <line x1="0" y1="96" x2="1280" y2="96" stroke="#ffffff" stroke-opacity="0.06" stroke-width="0.5"/>

  <!-- Nav tabs: ~90px spacing, starting at x=60, distributed across 800px -->
  <!-- Tab 1: Anvil (/) -->
  <g transform="translate(100,68)">
    <path d="M-6-2C-4-6 0-8 4-6L8-2 6 4 2 8-2 8-6 4Z" fill="none" stroke="#8e8e93" stroke-width="1.5" stroke-linejoin="round"/>
    <circle cx="1" cy="1" r="1.5" fill="#8e8e93"/>
    <text x="0" y="20" font-family="-apple-system, BlinkMacSystemFont, system-ui, sans-serif" font-size="10" fill="#8e8e93" text-anchor="middle">Anvil</text>
  </g>

  <!-- Tab 2: Data -->
  <g transform="translate(195,68)">
    <path d="M-6-4h12v10h-12z" fill="none" stroke="#8e8e93" stroke-width="1.5" stroke-linejoin="round"/>
    <line x1="-6" y1="-2" x2="-2" y2="-2" stroke="#8e8e93" stroke-width="1.5" stroke-linecap="round"/>
    <text x="0" y="20" font-family="-apple-system, BlinkMacSystemFont, system-ui, sans-serif" font-size="10" fill="#8e8e93" text-anchor="middle">Data</text>
  </g>

  <!-- Tab 3: Train (ACTIVE — iOS blue) -->
  <g transform="translate(290,68)">
    <circle cx="0" cy="-10" r="3" fill="#007aff"/>
    <path d="M-6-3C-4 0-2 2 0 6 2 2 4 0 6-3" fill="none" stroke="#007aff" stroke-width="1.5" stroke-linecap="round" stroke-linejoin="round"/>
    <path d="M-6-3L0-7 6-3" fill="none" stroke="#007aff" stroke-width="1.5" stroke-linejoin="round"/>
    <text x="0" y="20" font-family="-apple-system, BlinkMacSystemFont, system-ui, sans-serif" font-size="10" font-weight="600" fill="#007aff" text-anchor="middle">Train</text>
  </g>

  <!-- Tab 4: Exps -->
  <g transform="translate(385,68)">
    <path d="M-4-6L4-6 4-3 2-3 2 2C2 5 0 7-3 7-5 7-6 5-6 3L-4 3-4 4" fill="none" stroke="#8e8e93" stroke-width="1.5" stroke-linejoin="round"/>
    <circle cx="-3" cy="3" r="1.5" fill="#8e8e93"/>
    <text x="0" y="20" font-family="-apple-system, BlinkMacSystemFont, system-ui, sans-serif" font-size="10" fill="#8e8e93" text-anchor="middle">Exps</text>
  </g>

  <!-- Tab 5: Models -->
  <g transform="translate(480,68)">
    <ellipse cx="0" cy="-4" rx="5" ry="3" fill="none" stroke="#8e8e93" stroke-width="1.5"/>
    <path d="M-4-1C-4 2-2 5 0 5 2 5 4 2 4-1" fill="none" stroke="#8e8e93" stroke-width="1.5"/>
    <text x="0" y="20" font-family="-apple-system, BlinkMacSystemFont, system-ui, sans-serif" font-size="10" fill="#8e8e93" text-anchor="middle">Models</text>
  </g>

  <!-- Tab 6: Play -->
  <g transform="translate(575,68)">
    <polygon points="-5,-5 6,1 -5,7" fill="none" stroke="#8e8e93" stroke-width="1.5" stroke-linejoin="round"/>
    <text x="0" y="20" font-family="-apple-system, BlinkMacSystemFont, system-ui, sans-serif" font-size="10" fill="#8e8e93" text-anchor="middle">Play</text>
  </g>

  <!-- Tab 7: Learn -->
  <g transform="translate(670,68)">
    <rect x="-5" y="-5" width="10" height="12" rx="1.5" fill="none" stroke="#8e8e93" stroke-width="1.5"/>
    <line x1="0" y1="-5" x2="0" y2="7" stroke="#8e8e93" stroke-width="1.2"/>
    <text x="0" y="20" font-family="-apple-system, BlinkMacSystemFont, system-ui, sans-serif" font-size="10" fill="#8e8e93" text-anchor="middle">Learn</text>
  </g>

  <!-- Tab 8: Ops -->
  <g transform="translate(765,68)">
    <circle cx="0" cy="1" r="4" fill="none" stroke="#8e8e93" stroke-width="1.5"/>
    <path d="M-1-6L0-3 1-6" fill="none" stroke="#8e8e93" stroke-width="1.2" stroke-linecap="round" stroke-linejoin="round"/>
    <path d="M-1-6L0-3 1-6" transform="rotate(45)" fill="none" stroke="#8e8e93" stroke-width="1.2" stroke-linecap="round"/>
    <text x="0" y="20" font-family="-apple-system, BlinkMacSystemFont, system-ui, sans-serif" font-size="10" fill="#8e8e93" text-anchor="middle">Ops</text>
  </g>

  <!-- Tab 9: About -->
  <g transform="translate(860,68)">
    <circle cx="0" cy="1" r="6" fill="none" stroke="#8e8e93" stroke-width="1.5"/>
    <line x1="0" y1="0" x2="0" y2="4" stroke="#8e8e93" stroke-width="1.5" stroke-linecap="round"/>
    <circle cx="0" cy="-2.5" r="1" fill="#8e8e93"/>
    <text x="0" y="20" font-family="-apple-system, BlinkMacSystemFont, system-ui, sans-serif" font-size="10" fill="#8e8e93" text-anchor="middle">About</text>
  </g>

  <!-- Theme toggle (right edge) -->
  <g transform="translate(1220,68)">
    <rect x="-12" y="-10" width="24" height="20" rx="6" fill="#2c2c2e"/>
    <circle cx="-2" cy="0" r="4" fill="none" stroke="#007aff" stroke-width="1.2"/>
    <path d="M2-2L3-3M2 2L3 3M6 0H7M2 0H3" stroke="#007aff" stroke-width="1" stroke-linecap="round"/>
  </g>

  <!-- ================================================================ -->
  <!-- PAGE CONTENT (y=96+) — Grouped Background                         -->
  <!-- ================================================================ -->

  <rect x="0" y="96" width="1280" height="724" fill="#0c0c0d"/>

  <!-- ================================================================ -->
  <!-- WIZARD STEPS (centered, ~y=118–172)                               -->
  <!-- ================================================================ -->

  <text x="40" y="130" font-family="-apple-system, BlinkMacSystemFont, system-ui, sans-serif" font-size="24" font-weight="700" fill="#ffffff">Training</text>

  <!-- Wizard steps row centered at y=156 -->
  <g transform="translate(0, 156)">
    <!-- Step 1: Data (completed — green checkmark) -->
    <g transform="translate(545,0)">
      <circle cx="0" cy="0" r="16" fill="#34c759"/>
      <path d="M-5-1L-1 3 6-4" fill="none" stroke="#000" stroke-width="2.5" stroke-linecap="round" stroke-linejoin="round"/>
      <text x="0" y="24" font-family="-apple-system, BlinkMacSystemFont, system-ui, sans-serif" font-size="10" font-weight="600" fill="#34c759" text-anchor="middle" text-transform="uppercase">Data</text>
    </g>

    <!-- Connector 1 (filled) -->
    <line x1="577" y1="0" x2="609" y2="0" stroke="#007aff" stroke-width="2" stroke-linecap="round"/>

    <!-- Step 2: Configure (completed — green checkmark) -->
    <g transform="translate(625,0)">
      <circle cx="0" cy="0" r="16" fill="#34c759"/>
      <path d="M-5-1L-1 3 6-4" fill="none" stroke="#000" stroke-width="2.5" stroke-linecap="round" stroke-linejoin="round"/>
      <text x="0" y="24" font-family="-apple-system, BlinkMacSystemFont, system-ui, sans-serif" font-size="10" font-weight="600" fill="#34c759" text-anchor="middle" text-transform="uppercase">Configure</text>
    </g>

    <!-- Connector 2 (filled, since step 3 is active) -->
    <line x1="657" y1="0" x2="689" y2="0" stroke="#007aff" stroke-width="2" stroke-linecap="round"/>

    <!-- Step 3: Forge (active — orange glow) -->
    <g transform="translate(705,0)">
      <circle cx="0" cy="0" r="18" fill="#ff9500"/>
      <circle cx="0" cy="0" r="18" fill="none" stroke="#ff9500" stroke-opacity="0.3" stroke-width="6"/>
      <text x="0" y="5" font-family="ui-monospace, 'SF Mono', Menlo, Consolas, monospace" font-size="12" font-weight="700" fill="#fff" text-anchor="middle">⚒</text>
      <text x="0" y="26" font-family="-apple-system, BlinkMacSystemFont, system-ui, sans-serif" font-size="10" font-weight="700" fill="#ff9500" text-anchor="middle" text-transform="uppercase">Forge</text>
    </g>
  </g>

  <!-- Divider hairline after wizard -->
  <line x1="40" y1="196" x2="1240" y2="196" stroke="#38383a" stroke-width="0.5"/>

  <!-- ================================================================ -->
  <!-- LOSS CURVE CARD (left side)                                       -->
  <!-- ================================================================ -->

  <rect x="40" y="212" width="780" height="310" rx="20" fill="#1c1c1e"/>
  <rect x="40" y="212" width="780" height="310" rx="20" fill="none" stroke="#ffffff" stroke-opacity="0.06" stroke-width="0.5"/>

  <!-- Card header -->
  <text x="60" y="244" font-family="-apple-system, BlinkMacSystemFont, system-ui, sans-serif" font-size="15" font-weight="600" fill="#ffffff">Loss Curve</text>
  <circle cx="724" cy="237" r="4" fill="#34c759"/>
  <text x="734" y="241" font-family="ui-monospace, 'SF Mono', Menlo, Consolas, monospace" font-size="11" fill="#8e8e93">streaming</text>

  <line x1="56" y1="258" x2="804" y2="258" stroke="#38383a" stroke-width="1"/>

  <!-- Chart glow -->
  <ellipse cx="440" cy="380" rx="350" ry="120" fill="url(#chart-glow)"/>

  <!-- Chart plot area: x=100..780, y=270..492 -->
  <!-- Y axis: 0.0 to 2.4, 4 gridlines -->
  <g stroke="#38383a" stroke-width="0.5" stroke-dasharray="4,4">
    <line x1="100" y1="270" x2="780" y2="270"/>
    <line x1="100" y1="344" x2="780" y2="344"/>
    <line x1="100" y1="418" x2="780" y2="418"/>
    <line x1="100" y1="492" x2="780" y2="492"/>
  </g>

  <!-- Y axis labels -->
  <g font-family="ui-monospace, 'SF Mono', Menlo, Consolas, monospace" font-size="11" fill="#8e8e93" text-anchor="end">
    <text x="92" y="274">2.4</text>
    <text x="92" y="348">1.6</text>
    <text x="92" y="422">0.8</text>
    <text x="92" y="496">0.0</text>
  </g>

  <!-- Y axis title -->
  <text x="56" y="390" font-family="ui-monospace, 'SF Mono', Menlo, Consolas, monospace" font-size="10" fill="#8e8e93" transform="rotate(-90 56 390)" text-anchor="middle">loss</text>

  <!-- X axis labels -->
  <g font-family="ui-monospace, 'SF Mono', Menlo, Consolas, monospace" font-size="11" fill="#8e8e93" text-anchor="middle">
    <text x="100" y="508">0</text>
    <text x="270" y="508">250</text>
    <text x="440" y="508">500</text>
    <text x="610" y="508">750</text>
    <text x="780" y="508">1000</text>
  </g>

  <!-- X axis title -->
  <text x="440" y="524" font-family="ui-monospace, 'SF Mono', Menlo, Consolas, monospace" font-size="10" fill="#8e8e93" text-anchor="middle">steps</text>

  <!-- Loss curve — area fill -->
  <!-- Y range: 270 (loss 2.4) to 492 (loss 0.0). Steps: 0@x=100 to 1000@x=780 -->
  <!-- Steps scaling: x = 100 + (step/1000)*680. So step 742 ≈ x = 100 + 0.742*680 = 605 -->
  <!-- Loss scaling: y = 492 - (loss/2.4)*222. So loss 2.0 → y=307, loss 1.5 → y=353, loss 1.0 → y=399, loss 0.8312 → y=415 -->
  <path d="M 100 270
           C 110 290, 130 330, 170 350
           C 220 375, 270 395, 320 406
           C 370 414, 420 420, 470 425
           C 520 429, 560 432, 605 434
           L 780 434
           L 780 492 L 100 492 Z"
        fill="url(#area-grad)"/>

  <!-- Loss curve - stroke (iOS blue #007aff, matching chart.js which reads accent var) -->
  <path d="M 100 270
           C 110 290, 130 330, 170 350
           C 220 375, 270 395, 320 406
           C 370 414, 420 420, 470 425
           C 520 429, 560 432, 605 434
           L 780 434"
        fill="none" stroke="#007aff" stroke-width="2.5" stroke-linecap="round" stroke-linejoin="round"/>

  <!-- Current step indicator at step 742 ≈ x=605 -->
  <line x1="605" y1="270" x2="605" y2="492" stroke="#007aff" stroke-width="1.5" stroke-dasharray="3,3"/>
  <circle cx="605" cy="434" r="5" fill="#007aff"/>
  <circle cx="605" cy="434" r="9" fill="none" stroke="#007aff" stroke-opacity="0.3" stroke-width="2"/>

  <!-- ================================================================ -->
  <!-- METRICS CARD (right of chart)                                     -->
  <!-- ================================================================ -->

  <rect x="840" y="212" width="400" height="310" rx="20" fill="#1c1c1e"/>
  <rect x="840" y="212" width="400" height="310" rx="20" fill="none" stroke="#ffffff" stroke-opacity="0.06" stroke-width="0.5"/>

  <!-- Card header -->
  <text x="860" y="244" font-family="-apple-system, BlinkMacSystemFont, system-ui, sans-serif" font-size="15" font-weight="600" fill="#ffffff">Metrics</text>

  <line x1="856" y1="258" x2="1224" y2="258" stroke="#38383a" stroke-width="1"/>

  <!-- Metrics list (6 items, matching the real updateMetrics() function) -->
  <!-- Each metric: label left, value right, on surface-2 background -->

  <g transform="translate(860, 278)">
    <!-- Metric 1: Step -->
    <rect x="0" y="0" width="360" height="36" rx="13" fill="#2c2c2e"/>
    <text x="12" y="23" font-family="-apple-system, BlinkMacSystemFont, system-ui, sans-serif" font-size="12" fill="#8e8e93">Step</text>
    <text x="348" y="23" font-family="ui-monospace, 'SF Mono', Menlo, Consolas, monospace" font-size="13" font-weight="600" fill="#ffffff" text-anchor="end">742 / 1000</text>

    <!-- Metric 2: Loss -->
    <rect x="0" y="44" width="360" height="36" rx="13" fill="#2c2c2e"/>
    <text x="12" y="67" font-family="-apple-system, BlinkMacSystemFont, system-ui, sans-serif" font-size="12" fill="#8e8e93">Loss</text>
    <text x="348" y="67" font-family="ui-monospace, 'SF Mono', Menlo, Consolas, monospace" font-size="13" font-weight="600" fill="#ffffff" text-anchor="end">0.8312</text>

    <!-- Metric 3: Device -->
    <rect x="0" y="88" width="360" height="36" rx="13" fill="#2c2c2e"/>
    <text x="12" y="111" font-family="-apple-system, BlinkMacSystemFont, system-ui, sans-serif" font-size="12" fill="#8e8e93">Device</text>
    <text x="348" y="111" font-family="ui-monospace, 'SF Mono', Menlo, Consolas, monospace" font-size="13" font-weight="600" fill="#ffffff" text-anchor="end">MPS</text>

    <!-- Metric 4: Throughput -->
    <rect x="0" y="132" width="360" height="36" rx="13" fill="#2c2c2e"/>
    <text x="12" y="155" font-family="-apple-system, BlinkMacSystemFont, system-ui, sans-serif" font-size="12" fill="#8e8e93">Throughput</text>
    <text x="348" y="155" font-family="ui-monospace, 'SF Mono', Menlo, Consolas, monospace" font-size="13" font-weight="600" fill="#ffffff" text-anchor="end">18.4 st/s</text>

    <!-- Metric 5: Elapsed -->
    <rect x="0" y="176" width="360" height="36" rx="13" fill="#2c2c2e"/>
    <text x="12" y="199" font-family="-apple-system, BlinkMacSystemFont, system-ui, sans-serif" font-size="12" fill="#8e8e93">Elapsed</text>
    <text x="348" y="199" font-family="ui-monospace, 'SF Mono', Menlo, Consolas, monospace" font-size="13" font-weight="600" fill="#ffffff" text-anchor="end">1m 02s</text>

    <!-- Metric 6: ETA -->
    <rect x="0" y="220" width="360" height="36" rx="13" fill="#2c2c2e"/>
    <text x="12" y="243" font-family="-apple-system, BlinkMacSystemFont, system-ui, sans-serif" font-size="12" fill="#8e8e93">ETA</text>
    <text x="348" y="243" font-family="ui-monospace, 'SF Mono', Menlo, Consolas, monospace" font-size="13" font-weight="600" fill="#ffffff" text-anchor="end">21s</text>
  </g>

  <!-- ================================================================ -->
  <!-- OUTPUT CARD (full width below chart)                              -->
  <!-- ================================================================ -->

  <rect x="40" y="542" width="1200" height="210" rx="20" fill="#1c1c1e"/>
  <rect x="40" y="542" width="1200" height="210" rx="20" fill="none" stroke="#ffffff" stroke-opacity="0.06" stroke-width="0.5"/>

  <!-- Card header with collapsible caret -->
  <text x="60" y="574" font-family="-apple-system, BlinkMacSystemFont, system-ui, sans-serif" font-size="15" font-weight="600" fill="#ffffff">Output</text>
  <!-- Output indicator dot (green, pulsing) -->
  <circle cx="256" cy="568" r="4" fill="#34c759"/>
  <circle cx="256" cy="568" r="6" fill="none" stroke="#34c759" stroke-opacity="0.4" stroke-width="1.5"/>
  <!-- Toggle chevron -->
  <text x="280" y="576" font-family="ui-monospace, 'SF Mono', Menlo, Consolas, monospace" font-size="10" fill="#8e8e93">▼</text>

  <line x1="56" y1="590" x2="1224" y2="590" stroke="#38383a" stroke-width="1"/>

  <!-- Output text area (mono, dark inset) -->
  <rect x="56" y="600" width="1168" height="136" rx="13" fill="#000000" fill-opacity="0.4"/>
  <rect x="56" y="600" width="1168" height="136" rx="13" fill="none" stroke="#38383a" stroke-width="0.5"/>

  <!-- Sample generated text lines -->
  <g font-family="ui-monospace, 'SF Mono', Menlo, Consolas, monospace" font-size="13" fill="#c7c7cc">
    <text x="76" y="624">the king of the north spoke softly to the</text>
    <text x="76" y="646">assembled lords, his voice carrying through</text>
    <text x="76" y="668">the great hall with an authority that commanded</text>
    <text x="76" y="690">silence. the flames in the hearth flickered</text>
    <text x="76" y="712">and spat as the gathered crowd waited for the</text>
  </g>

  <!-- Blinking cursor (iOS blue) -->
  <rect x="478" y="698" width="7" height="15" rx="1.5" fill="#007aff"/>

  <!-- Status footer line inside output -->
  <text x="76" y="730" font-family="ui-monospace, 'SF Mono', Menlo, Consolas, monospace" font-size="10" fill="#34c759">step    742 | loss 0.8312</text>

  <!-- ================================================================ -->
  <!-- BOTTOM STATUS BAR (subtle)                                       -->
  <!-- ================================================================ -->

  <line x1="40" y1="782" x2="1240" y2="782" stroke="#ffffff" stroke-opacity="0.04" stroke-width="0.5"/>
  <g font-family="ui-monospace, 'SF Mono', Menlo, Consolas, monospace" font-size="10" fill="#8e8e93">
    <text x="60" y="800">● anvil engine · 2.3M params · ~18 tok/s</text>
    <text x="1220" y="800" text-anchor="end">MIT license</text>
  </g>

</svg>